<svg width="474" height="58" viewBox="0 0 474 58" fill="none" xmlns="http://www.w3.org/2000/svg">
<path d="M12.1603 57.9999C10.027 57.9999 8.05365 57.4666 6.24031 56.3999C4.42698 55.3332 2.98698 53.8932 1.92031 52.0799C0.853646 50.2666 0.320312 48.2932 0.320312 46.1599V40.7999H12.7203V45.5199H45.3603V35.4399H12.1603C10.027 35.4399 8.05365 34.9066 6.24031 33.8399C4.42698 32.7732 2.98698 31.3599 1.92031 29.5999C0.853646 27.7866 0.320312 25.7866 0.320312 23.5999V12.2399C0.320312 10.0532 0.853646 8.0799 1.92031 6.3199C2.98698 4.50657 4.42698 3.06657 6.24031 1.9999C8.05365 0.933235 10.027 0.399902 12.1603 0.399902H46.0803C48.2136 0.399902 50.1603 0.933235 51.9203 1.9999C53.7337 3.06657 55.1736 4.50657 56.2403 6.3199C57.3603 8.0799 57.9203 10.0532 57.9203 12.2399V17.5999H45.3603V12.8799H12.7203V22.9599H46.0803C48.2136 22.9599 50.1603 23.4932 51.9203 24.5599C53.7337 25.6266 55.1736 27.0666 56.2403 28.8799C57.3603 30.6399 57.9203 32.6132 57.9203 34.7999V46.1599C57.9203 48.2932 57.3603 50.2666 56.2403 52.0799C55.1736 53.8932 53.7337 55.3332 51.9203 56.3999C50.1603 57.4666 48.2136 57.9999 46.0803 57.9999H12.1603Z" fill="white"/>
<path d="M66.8903 57.9999V0.399902H120.09V12.8799H79.4503V22.9599H112.17V35.4399H79.4503V45.5199H120.09V57.9999H66.8903Z" fill="white"/>
<path d="M172.7 57.9999L155.98 38.0799H172.22L185.5 53.7599V57.9999H172.7ZM127.98 57.9999V0.479901H173.66C175.847 0.479901 177.82 1.01323 179.58 2.0799C181.394 3.14657 182.834 4.58657 183.9 6.3999C185.02 8.21324 185.58 10.1866 185.58 12.3199V27.1999C185.58 29.3332 185.02 31.3066 183.9 33.1199C182.834 34.9332 181.394 36.3732 179.58 37.4399C177.82 38.5066 175.847 39.0399 173.66 39.0399L140.38 39.1199V57.9999H127.98ZM140.38 26.5599H173.02V12.8799H140.38V26.5599Z" fill="white"/>
<path d="M223.098 57.9999L189.738 0.399902H204.138L228.298 42.2399L252.458 0.399902H266.778L233.418 57.9999H223.098Z" fill="white"/>
<path d="M269.652 57.9999V0.399902H281.892V57.9999H269.652Z" fill="white"/>
<path d="M300.602 57.9999C298.415 57.9999 296.415 57.4666 294.602 56.3999C292.842 55.3332 291.428 53.9199 290.362 52.1599C289.295 50.3466 288.762 48.3466 288.762 46.1599V12.2399C288.762 10.0532 289.295 8.0799 290.362 6.3199C291.428 4.50657 292.842 3.06657 294.602 1.9999C296.415 0.933235 298.415 0.399902 300.602 0.399902H346.202V12.8799H303.802C302.948 12.8799 302.282 13.0932 301.802 13.5199C301.375 13.9466 301.162 14.6132 301.162 15.5199V42.8799C301.162 43.7332 301.375 44.3999 301.802 44.8799C302.282 45.3066 302.948 45.5199 303.802 45.5199H346.202V57.9999H300.602Z" fill="white"/>
<path d="M354.703 57.9999V0.399902H407.903V12.8799H367.263V22.9599H399.983V35.4399H367.263V45.5199H407.903V57.9999H354.703Z" fill="white"/>
<path d="M427.473 57.9999C425.339 57.9999 423.366 57.4666 421.553 56.3999C419.739 55.3332 418.299 53.8932 417.233 52.0799C416.166 50.2666 415.633 48.2932 415.633 46.1599V40.7999H428.033V45.5199H460.673V35.4399H427.473C425.339 35.4399 423.366 34.9066 421.553 33.8399C419.739 32.7732 418.299 31.3599 417.233 29.5999C416.166 27.7866 415.633 25.7866 415.633 23.5999V12.2399C415.633 10.0532 416.166 8.0799 417.233 6.3199C418.299 4.50657 419.739 3.06657 421.553 1.9999C423.366 0.933235 425.339 0.399902 427.473 0.399902H461.393C463.526 0.399902 465.473 0.933235 467.233 1.9999C469.046 3.06657 470.486 4.50657 471.553 6.3199C472.673 8.0799 473.233 10.0532 473.233 12.2399V17.5999H460.673V12.8799H428.033V22.9599H461.393C463.526 22.9599 465.473 23.4932 467.233 24.5599C469.046 25.6266 470.486 27.0666 471.553 28.8799C472.673 30.6399 473.233 32.6132 473.233 34.7999V46.1599C473.233 48.2932 472.673 50.2666 471.553 52.0799C470.486 53.8932 469.046 55.3332 467.233 56.3999C465.473 57.4666 463.526 57.9999 461.393 57.9999H427.473Z" fill="white"/>
</svg>
